<?xml version="1.0" encoding="utf-8"?>
<!-- Generator: Adobe Illustrator 25.2.3, SVG Export Plug-In . SVG Version: 6.00 Build 0)  -->
<svg version="1.1" id="Layer_1" xmlns="http://www.w3.org/2000/svg" xmlns:xlink="http://www.w3.org/1999/xlink" x="0px" y="0px"
	 viewBox="0 0 512 512" style="enable-background:new 0 0 512 512;" xml:space="preserve">
<style type="text/css">
	.st0{fill:#F2F2F2;}
	.st1{fill:#E6E6E6;}
	.st2{fill:#CCCCCC;}
	.st3{fill:#2BA5F7;}
	.st4{fill:#2197D8;}
	.st5{fill:#FFFFFF;}
	.st6{fill:#333333;}
	.st7{fill:none;}
</style>
<g>
	<path class="st0" d="M372.3,182.5c8.2,4.3,14,12.6,14.9,22.3c3.4-1.5,7.2-2.4,11.2-2.4c15.4,0,27.9,12.5,27.9,27.9
		c0,0.9-0.1,1.7-0.1,2.6c0.7-0.1,1.5-0.1,2.3-0.1c15.4,0,27.9,12.5,27.9,27.9H55.8c0-15.4,12.5-27.9,27.9-27.9c0.8,0,1.5,0,2.3,0.1
		c-0.1-0.9-0.1-1.7-0.1-2.6c0-15.4,12.5-27.9,27.9-27.9c4,0,7.8,0.9,11.2,2.4c1.2-14.3,13.2-25.5,27.7-25.5c5.3,0,10.2,1.5,14.5,4.1
		c3.6-11.2,14.1-19.3,26.5-19.3c6.9,0,13.2,2.5,18.1,6.7c4.6-9,14-15.2,24.8-15.2c7.6,0,14.5,3.1,19.5,8c5-4.9,11.9-8,19.5-8
		c10.8,0,20.2,6.2,24.8,15.2c4.9-4.1,11.2-6.7,18.1-6.7c4.6,0,8.9,1.1,12.7,3c6.5,3.3,11.6,9.2,13.9,16.3c4.2-2.6,9.2-4.1,14.5-4.1
		C364,179.4,368.4,180.5,372.3,182.5z"/>
	<g>
		<path class="st1" d="M306.4,166.9c2.2,1,4.2,2.4,6,3.9c1.2-2.4,2.8-4.6,4.7-6.6C313.3,164.4,309.7,165.3,306.4,166.9z"/>
		<path class="st1" d="M184.4,232.9c0.8,0,1.5,0,2.3,0.1c-0.1-0.9-0.1-1.7-0.1-2.6c0-15.4,12.5-27.9,27.9-27.9c4,0,7.8,0.9,11.2,2.4
			c1.2-14.3,13.2-25.5,27.7-25.5c5.3,0,10.2,1.5,14.5,4.1c3.6-11.2,14.1-19.3,26.5-19.3c0.4,0,0.9,0,1.3,0.1
			c-5.1-5.3-12.2-8.6-20.1-8.6c-7.6,0-14.5,3.1-19.5,8c-5-4.9-11.9-8-19.5-8c-10.9,0-20.2,6.2-24.8,15.2c-4.9-4.1-11.2-6.7-18.1-6.7
			c-12.4,0-22.9,8.1-26.5,19.3c-4.2-2.6-9.1-4.1-14.5-4.1c-14.6,0-26.5,11.2-27.7,25.5c-3.4-1.5-7.2-2.4-11.2-2.4
			c-15.4,0-27.9,12.5-27.9,27.9c0,0.9,0.1,1.7,0.1,2.6c-0.7-0.1-1.5-0.1-2.3-0.1c-15.4,0-27.9,12.5-27.9,27.9h100.8
			C156.5,245.3,169,232.9,184.4,232.9z"/>
	</g>
	<path class="st1" d="M441.2,451.2v3.1c0,25.9-21,47-47,47H117.8c-26,0-47-21-47-47v-3.1h74.7h221H441.2z"/>
	<path class="st2" d="M153.8,454.3v-3.1h-8.2H70.8v3.1c0,25.9,21,47,47,47h82.9C174.8,501.3,153.8,480.2,153.8,454.3z"/>
	<path class="st3" d="M456.2,260.7h20c0,81.3-44.1,152.4-109.7,190.5h-221C79.9,413.1,35.8,342.1,35.8,260.7h20H456.2z"/>
	<path class="st4" d="M147.3,260.7H55.8h-20c0,81.3,44.1,152.4,109.7,190.5H257C191.4,413.1,147.3,342.1,147.3,260.7z"/>
	<path class="st5" d="M350,433.5c-3.7,0-7.3-1.9-9.3-5.3c-3-5.1-1.2-11.7,3.9-14.7c34.9-20.3,62.1-52.4,76.5-90.4
		c2.1-5.5,8.3-8.3,13.8-6.2c5.5,2.1,8.3,8.3,6.2,13.8c-16.2,42.6-46.6,78.5-85.8,101.3C353.7,433.1,351.8,433.5,350,433.5z"/>
	<circle class="st5" cx="440.3" cy="293.9" r="10.7"/>
	<path class="st6" d="M455.2,377.6c20.8-35.3,31.7-75.7,31.7-116.9c0-5.9-4.8-10.7-10.7-10.7h-10.8c-3.9-13.6-15.2-24.2-29.2-27.1
		c-3.5-17.7-19.1-31.1-37.9-31.1c-1.2,0-2.4,0.1-3.6,0.2c-1.9-4.4-4.7-8.4-8-11.8l85.9-127.7c3.3-4.9,2-11.6-2.9-14.9
		c-4.9-3.3-11.6-2-14.9,2.9L368,169.6c-2.8-0.7-5.7-1-8.6-1c-3.2,0-6.3,0.4-9.4,1.2c-1.6-2.4-3.5-4.5-5.6-6.4L408.6,15
		c2.4-5.4-0.1-11.7-5.6-14.1c-5.4-2.4-11.7,0.1-14.1,5.6L325.1,154c-2.2-0.4-4.4-0.6-6.7-0.6c-5.3,0-10.4,1.1-15.2,3.1
		c-7.1-7.4-17-11.7-27.7-11.7c-7,0-13.7,1.8-19.5,5.3c-5.9-3.5-12.6-5.3-19.5-5.3c-10.6,0-20.5,4.3-27.7,11.7
		c-4.8-2-9.9-3.1-15.2-3.1c-12.9,0-24.5,6.3-31.6,16.4c-3.1-0.8-6.2-1.2-9.4-1.2c-15.6,0-29.4,9.6-35.4,23.3
		c-1.2-0.1-2.4-0.2-3.6-0.2c-18.7,0-34.4,13.4-37.9,31.1c-14,2.9-25.3,13.5-29.2,27.1H35.8c-5.9,0-10.7,4.8-10.7,10.7
		c0,41.2,11,81.6,31.7,116.9c14.2,24.1,32.6,45.4,54.3,62.9H70.8c-5.9,0-10.7,4.8-10.7,10.7v3.1c0,31.8,25.9,57.7,57.7,57.7h276.3
		c31.8,0,57.7-25.9,57.7-57.7v-3.1c0-5.9-4.8-10.7-10.7-10.7h-40.3C422.5,423,441,401.7,455.2,377.6z M83.6,243.6
		c0.5,0,0.9,0,1.4,0.1c3.2,0.3,6.3-0.9,8.5-3.1c2.2-2.3,3.3-5.4,3.1-8.5c-0.1-0.6-0.1-1.1-0.1-1.6c0-9.5,7.7-17.2,17.2-17.2
		c2.4,0,4.7,0.5,6.9,1.5c3.2,1.4,6.8,1.2,9.8-0.6c3-1.8,4.9-4.9,5.2-8.3c0.7-8.8,8.2-15.7,17.1-15.7c3.1,0,6.2,0.9,8.9,2.5
		c2.8,1.7,6.2,2,9.3,0.9c3.1-1.1,5.5-3.6,6.5-6.8c2.3-7.1,8.8-11.9,16.3-11.9c5.2,0,8.9,2.2,11.1,4.1c2.5,2.1,5.8,3,9.1,2.4
		c3.2-0.6,6-2.7,7.5-5.6c3-5.8,8.8-9.4,15.3-9.4c4.5,0,8.8,1.7,12,4.9c4.2,4.1,10.9,4.1,15,0c3.2-3.2,7.5-4.9,12-4.9
		c6.5,0,12.3,3.6,15.3,9.4c1.5,2.9,4.2,5,7.5,5.6c3.2,0.6,6.6-0.2,9.1-2.4c1.8-1.6,4.7-3.4,8.7-3.9l-12.8,29.7
		c-2.4,5.4,0.1,11.7,5.6,14.1c1.4,0.6,2.8,0.9,4.3,0.9c4.1,0,8.1-2.4,9.8-6.5l11.7-27c0.1,0.2,0.1,0.4,0.2,0.6
		c1,3.1,3.4,5.6,6.5,6.8c3.1,1.1,6.5,0.8,9.3-0.9c1-0.6,2-1.1,3.1-1.5l-19.2,28.6c-3.3,4.9-2,11.6,2.9,14.9c1.8,1.2,3.9,1.8,6,1.8
		c3.4,0,6.8-1.7,8.9-4.7l22.1-32.9c1.2,2.1,2,4.5,2.2,7c0.3,3.4,2.2,6.5,5.2,8.3c3,1.8,6.6,2,9.8,0.6c2.2-1,4.5-1.5,6.9-1.5
		c9.5,0,17.2,7.7,17.2,17.2c0,0.5,0,1-0.1,1.6c-0.3,3.2,0.8,6.3,3.1,8.5s5.3,3.4,8.5,3.1c0.5,0,0.9-0.1,1.4-0.1
		c5.4,0,10.2,2.5,13.4,6.4H70.3C73.4,246.1,78.2,243.6,83.6,243.6z M394.2,490.6H117.8c-17.4,0-31.9-12.3-35.5-28.6h347.3
		C426.1,478.3,411.5,490.6,394.2,490.6z M363.5,440.5h-215c-30.1-18-55.4-43.5-73.2-73.8c-17-28.9-26.8-61.7-28.5-95.3h418.4
		c-1.7,33.6-11.5,66.4-28.5,95.3C418.9,397,393.6,422.5,363.5,440.5z"/>
</g>
<g>
	<rect x="109.1" y="283.2" class="st7" width="295.9" height="115.7"/>
	<path class="st6" d="M194.5,357.1c-4.1,0-7.7-1.1-10.9-3.4c-1.7-1.2-4.2-3.6-7.6-7.4l-1.1-1.2c-2.1,0-4.7,2.3-7.9,7
		c-1.3,2-3.2,2.9-5.5,2.9c-1.7,0-3.2-0.5-4.4-1.5c-1.4-1-2.1-2.3-2.1-3.8c0-0.8,0.2-1.6,0.7-2.4c1.9-3.5,4.3-6.4,7.3-8.7
		c3.7-2.9,7.7-4.3,11.9-4.3c3.2,0,6,1,8.5,3c0.2,0.1,2,2,5.5,5.6c2,2.1,4,3.1,5.9,3.3c0.3,0,0.9-1.2,1.8-3.8
		c1.6-4.2,3.8-6.3,6.8-6.3c4.3,0,6.4,2.1,6.4,6.2c0,3.5-1.4,6.7-4.2,9.8C202.4,355.4,198.8,357.1,194.5,357.1z"/>
	<path class="st6" d="M262.5,309.7c-1.3,2.7-3.1,7-5.5,12.7c-2.2,5.8-5.3,12.4-9.4,20c-3.5,6.4-7.1,12.9-10.6,19.4
		c-0.7,1.3-3.6,7.5-8.8,18.7c-1.2,2.6-3.1,3.9-5.7,3.9c-1.7,0-3.2-0.5-4.4-1.6c-1.4-1.2-2.1-2.6-2.1-4.3c0-0.7,0.1-1.5,0.4-2.2
		c2.6-6.7,7.4-16.3,14.4-28.9c7-12.6,11.8-22.2,14.4-29c2-5.1,3.4-8.6,4.3-10.4c2.5-5,4.9-7.4,7.2-7.4c1.7,0.1,3.1,0.6,4.4,1.7
		c1.4,1.2,2.1,2.6,2.1,4.2C263.1,307.5,262.9,308.5,262.5,309.7z"/>
	<path class="st6" d="M286.5,385c-2.2,0-4.1-0.7-5.7-2c-1.6-1.4-2.4-2.9-2.4-4.6c0-1.7,0.8-3.3,2.4-4.7c1.6-1.4,3.5-2.1,5.7-2.1
		c2.3,0,4.2,0.7,5.7,2c1.5,1.3,2.2,2.9,2.2,4.8c0,1.7-0.8,3.3-2.3,4.6C290.5,384.3,288.7,385,286.5,385z"/>
	<path class="st6" d="M352.1,323.3c-2.3,0.5-5.1,0.9-8.3,1.2c5.5,5.6,8.3,9.4,8.3,11.5c0,1.6-0.7,3-2,4.1c-1.3,1.1-2.8,1.7-4.5,1.7
		c-1.8,0-3.6-0.9-5.5-2.8c-1.4-1.6-2.7-3.2-4.1-4.8c-1.3-1.5-2.5-2.7-3.5-3.7c-6.7,6.4-11.3,9.6-13.7,9.6c-1.7,0-3.2-0.6-4.5-1.8
		s-1.9-2.5-1.9-4.1c0-1.4,0.8-2.9,2.5-4.5c1.4-1.1,2.9-2.3,4.3-3.5c0.9-0.7,1.6-1.4,2.2-1.8c-4-1.2-7-2.2-8.9-3
		c-2.6-1.1-4-2.8-4-5.1c0-1.5,0.6-2.9,1.8-4.2c1.2-1.2,2.7-1.9,4.5-1.9c0.9,0,4.7,1.1,11.1,3.4c-0.2-2.8-0.2-4.8-0.2-5.9
		c0-1.6,0.6-3,1.8-4.1c1.2-1.1,2.7-1.6,4.5-1.6c1.8,0,3.3,0.5,4.5,1.6c1.2,1.1,1.8,2.5,1.8,4.1c0,2,0,3.8,0.1,5.5
		c5.9-0.9,10.1-1.3,12.5-1.3c1.8,0,3.3,0.6,4.4,1.7c1.2,1.2,1.7,2.5,1.7,4.1C357.3,320.8,355.5,322.6,352.1,323.3z"/>
</g>
</svg>
